<svg xmlns="http://www.w3.org/2000/svg" xmlns:xlink="http://www.w3.org/1999/xlink" width="390" zoomAndPan="magnify" viewBox="0 0 292.5 125.249995" height="167" preserveAspectRatio="xMidYMid meet" version="1.0"><defs><g/><clipPath id="5545a7fecb"><path d="M 0.621094 0 L 291.382812 0 L 291.382812 124.503906 L 0.621094 124.503906 Z M 0.621094 0 " clip-rule="nonzero"/></clipPath><clipPath id="a0ba1f3fd4"><path d="M 135 53 L 291.382812 53 L 291.382812 121 L 135 121 Z M 135 53 " clip-rule="nonzero"/></clipPath><clipPath id="2bb87c206f"><path d="M 0.621094 5.242188 L 106 5.242188 L 106 104.648438 L 0.621094 104.648438 Z M 0.621094 5.242188 " clip-rule="nonzero"/></clipPath><clipPath id="4c3bedf12f"><path d="M 101 52 L 127.347656 52 L 127.347656 92 L 101 92 Z M 101 52 " clip-rule="nonzero"/></clipPath></defs><g clip-path="url(#5545a7fecb)"><path fill="#ffffff" d="M 0.621094 0 L 291.878906 0 L 291.878906 132.183594 L 0.621094 132.183594 Z M 0.621094 0 " fill-opacity="1" fill-rule="nonzero"/><path fill="#ffffff" d="M 0.621094 0 L 291.878906 0 L 291.878906 124.71875 L 0.621094 124.71875 Z M 0.621094 0 " fill-opacity="1" fill-rule="nonzero"/><path fill="#12405e" d="M 0.621094 0 L 291.878906 0 L 291.878906 124.71875 L 0.621094 124.71875 Z M 0.621094 0 " fill-opacity="1" fill-rule="nonzero"/></g><g fill="#ffffff" fill-opacity="1"><g transform="translate(141.908567, 53.722209)"><g><path d="M 31.359375 -41.09375 L 23.222656 -41.09375 C 21.574219 -41.09375 20.238281 -39.652344 20.238281 -38.003906 L 20.238281 -14.625 C 20.238281 -13.386719 19.207031 -12.410156 17.972656 -12.410156 C 16.785156 -12.410156 15.757812 -13.386719 15.757812 -14.625 L 15.757812 -39.1875 C 15.757812 -40.21875 14.933594 -41.039062 13.953125 -41.039062 L 2.675781 -41.039062 C 1.699219 -41.039062 0.875 -40.21875 0.875 -39.1875 L 0.875 -14.726562 C 0.875 -6.078125 8.960938 0.976562 17.609375 0.976562 C 26.109375 0.976562 34.039062 -5.664062 34.398438 -14.058594 L 34.398438 -38.003906 C 34.398438 -39.652344 33.007812 -41.09375 31.359375 -41.09375 Z M 31.359375 -41.09375 "/></g></g></g><g fill="#ffffff" fill-opacity="1"><g transform="translate(177.181778, 53.722209)"><g><path d="M 31.773438 -41.144531 L 25.285156 -41.144531 C 23.273438 -41.144531 21.523438 -39.496094 21.523438 -37.4375 L 21.523438 -25.335938 L 15.5 -38.722656 C 14.933594 -40.164062 13.542969 -41.144531 11.945312 -41.144531 L 5.457031 -41.144531 C 3.398438 -41.144531 1.699219 -39.496094 1.699219 -37.4375 L 1.699219 -3.039062 C 1.699219 -0.976562 3.398438 0.667969 5.457031 0.667969 L 11.945312 0.667969 C 14.058594 0.667969 15.707031 -0.976562 15.707031 -3.039062 L 15.707031 -14.625 L 21.730469 -1.855469 C 22.347656 -0.410156 23.636719 0.667969 25.285156 0.667969 L 31.773438 0.667969 C 33.882812 0.667969 35.53125 -0.976562 35.53125 -3.039062 L 35.53125 -37.4375 C 35.53125 -39.496094 33.882812 -41.144531 31.773438 -41.144531 Z M 31.773438 -41.144531 "/></g></g></g><g fill="#ffffff" fill-opacity="1"><g transform="translate(214.41174, 53.722209)"><g><path d="M 5.355469 0.0507812 L 11.742188 0.0507812 C 13.902344 0.0507812 15.449219 -1.699219 15.449219 -3.65625 L 15.449219 -37.488281 C 15.449219 -39.652344 13.902344 -41.195312 11.742188 -41.195312 L 5.355469 -41.195312 C 3.347656 -41.195312 1.699219 -39.652344 1.699219 -37.488281 L 1.699219 -3.65625 C 1.699219 -1.699219 3.347656 0.0507812 5.355469 0.0507812 Z M 5.355469 0.0507812 "/></g></g></g><path stroke-linecap="butt" transform="matrix(0.75883, 0, 0, 0.75883, 138.88916, 11.458917)" fill="none" stroke-linejoin="miter" d="M 47.633876 -0.156916 L 36.911155 -0.156916 C 34.74396 -0.156916 32.983437 1.747744 32.983437 3.914938 L 32.983437 34.734398 C 32.983437 36.355933 31.629584 37.648013 30.002901 37.648013 C 28.427696 37.648013 27.073843 36.355933 27.073843 34.734398 L 27.073843 2.360324 C 27.073843 1.001323 25.992819 -0.0899959 24.700739 -0.0899959 L 9.839242 -0.0899959 C 8.547162 -0.0899959 7.471287 1.001323 7.471287 2.360324 L 7.471287 34.600557 C 7.471287 45.997631 18.127088 55.294432 29.524162 55.294432 C 40.720475 55.294432 51.160071 46.527847 51.63881 35.475671 L 51.63881 3.914938 C 51.63881 1.747744 49.816514 -0.156916 47.633876 -0.156916 Z M 94.663538 -0.223837 L 86.113158 -0.223837 C 83.462077 -0.223837 81.161042 1.943357 81.161042 4.661359 L 81.161042 20.614174 L 73.223242 2.972903 C 72.476822 1.068243 70.639082 -0.223837 68.53366 -0.223837 L 59.988429 -0.223837 C 57.270427 -0.223837 55.031164 1.943357 55.031164 4.661359 L 55.031164 49.99227 C 55.031164 52.710271 57.270427 54.877465 59.988429 54.877465 L 68.53366 54.877465 C 71.318582 54.877465 73.490924 52.710271 73.490924 49.99227 L 73.490924 34.734398 L 81.43902 51.562327 C 82.252361 53.451544 83.940816 54.877465 86.113158 54.877465 L 94.663538 54.877465 C 97.443312 54.877465 99.615654 52.710271 99.615654 49.99227 L 99.615654 4.661359 C 99.615654 1.943357 97.443312 -0.223837 94.663538 -0.223837 Z M 108.917603 54.064124 L 117.334141 54.064124 C 120.180836 54.064124 122.219337 51.763089 122.219337 49.178928 L 122.219337 4.594438 C 122.219337 1.747744 120.180836 -0.290757 117.334141 -0.290757 L 108.917603 -0.290757 C 106.266522 -0.290757 104.094179 1.747744 104.094179 4.594438 L 104.094179 49.178928 C 104.094179 51.763089 106.266522 54.064124 108.917603 54.064124 Z M 108.917603 54.064124 " stroke="#12405e" stroke-width="1.102831" stroke-opacity="1" stroke-miterlimit="4"/><g fill="#ffffff" fill-opacity="1"><g transform="translate(138.149363, 115.208661)"><g><path d="M 27.980469 -20.921875 C 27.386719 -20.921875 26.925781 -20.457031 26.925781 -19.863281 C 26.925781 -17.621094 24.878906 -15.640625 22.570312 -15.640625 C 20.128906 -15.640625 18.214844 -17.621094 18.214844 -19.863281 L 18.214844 -32.933594 C 18.214844 -36.097656 21.582031 -38.605469 25.144531 -36.5625 C 26.132812 -35.96875 26.925781 -34.515625 26.925781 -33.328125 L 26.925781 -32.996094 C 26.925781 -32.46875 27.386719 -31.941406 27.980469 -31.941406 L 43.027344 -31.941406 C 43.492188 -31.941406 43.953125 -32.402344 43.953125 -32.933594 L 43.953125 -34.121094 C 43.953125 -44.941406 33.589844 -53.652344 22.570312 -53.652344 C 11.746094 -53.652344 1.121094 -44.941406 1.121094 -34.121094 L 1.121094 -19.203125 C 1.121094 -7.984375 11.746094 0.792969 22.570312 0.792969 C 33.589844 0.792969 43.953125 -7.984375 43.953125 -19.203125 L 43.953125 -19.996094 C 43.953125 -20.457031 43.492188 -20.921875 43.027344 -20.921875 Z M 27.980469 -20.921875 "/></g></g></g><g fill="#ffffff" fill-opacity="1"><g transform="translate(183.223537, 115.208661)"><g><path d="M 6.863281 0.0664062 L 15.046875 0.0664062 C 17.820312 0.0664062 19.796875 -2.179688 19.796875 -4.6875 L 19.796875 -48.042969 C 19.796875 -50.816406 17.820312 -52.796875 15.046875 -52.796875 L 6.863281 -52.796875 C 4.289062 -52.796875 2.179688 -50.816406 2.179688 -48.042969 L 2.179688 -4.6875 C 2.179688 -2.179688 4.289062 0.0664062 6.863281 0.0664062 Z M 6.863281 0.0664062 "/></g></g></g><g fill="#ffffff" fill-opacity="1"><g transform="translate(205.199676, 115.208661)"><g><path d="M 40.71875 -52.730469 L 32.402344 -52.730469 C 29.828125 -52.730469 27.585938 -50.617188 27.585938 -47.980469 L 27.585938 -32.46875 L 19.863281 -49.628906 C 19.136719 -51.476562 17.355469 -52.730469 15.3125 -52.730469 L 6.996094 -52.730469 C 4.355469 -52.730469 2.179688 -50.617188 2.179688 -47.980469 L 2.179688 -3.894531 C 2.179688 -1.253906 4.355469 0.859375 6.996094 0.859375 L 15.3125 0.859375 C 18.015625 0.859375 20.128906 -1.253906 20.128906 -3.894531 L 20.128906 -18.742188 L 27.851562 -2.375 C 28.640625 -0.527344 30.292969 0.859375 32.402344 0.859375 L 40.71875 0.859375 C 43.425781 0.859375 45.535156 -1.253906 45.535156 -3.894531 L 45.535156 -47.980469 C 45.535156 -50.617188 43.425781 -52.730469 40.71875 -52.730469 Z M 40.71875 -52.730469 "/></g></g></g><g fill="#ffffff" fill-opacity="1"><g transform="translate(252.913624, 115.208661)"><g><path d="M 20.589844 -38.476562 L 33.988281 -38.476562 C 35.902344 -38.476562 37.484375 -40.058594 37.484375 -41.90625 L 37.484375 -49.296875 C 37.484375 -51.210938 35.902344 -52.730469 33.988281 -52.730469 L 6.996094 -52.730469 C 4.289062 -52.730469 2.179688 -50.617188 2.179688 -49.101562 L 2.179688 -6.136719 C 2.179688 -2.242188 4.289062 -0.132812 6.996094 -0.132812 L 33.988281 -0.132812 C 35.902344 -0.132812 37.484375 -1.648438 37.484375 -3.5625 L 37.484375 -10.957031 C 37.484375 -12.867188 35.902344 -14.519531 33.988281 -14.519531 L 20.589844 -14.519531 C 20.328125 -14.519531 20.128906 -14.71875 20.128906 -14.980469 L 20.128906 -19.203125 C 20.128906 -19.46875 20.328125 -19.667969 20.589844 -19.667969 L 30.292969 -19.667969 C 32.007812 -19.667969 33.460938 -21.050781 33.460938 -22.835938 L 33.460938 -30.027344 C 33.460938 -31.742188 32.007812 -33.195312 30.292969 -33.195312 L 20.589844 -33.195312 C 20.328125 -33.195312 20.128906 -33.394531 20.128906 -33.589844 L 20.128906 -37.949219 C 20.128906 -38.144531 20.328125 -38.476562 20.589844 -38.476562 Z M 20.589844 -38.476562 "/></g></g></g><g clip-path="url(#a0ba1f3fd4)"><path stroke-linecap="butt" transform="matrix(0.75883, 0, 0, 0.75883, 138.88916, 61.200663)" fill="none" stroke-linejoin="miter" d="M 38.898179 41.437324 C 38.110576 41.437324 37.497996 42.034461 37.497996 42.822063 C 37.497996 45.771713 34.800585 48.381612 31.763425 48.381612 C 28.535798 48.381612 26.008263 45.771713 26.008263 42.822063 L 26.008263 25.597759 C 26.008263 21.417802 30.445606 18.128402 35.160927 20.820665 C 36.453007 21.608268 37.497996 23.518076 37.497996 25.088133 L 37.497996 25.515395 C 37.497996 26.215486 38.110576 26.915577 38.898179 26.915577 L 58.727235 26.915577 C 59.324371 26.915577 59.936951 26.302998 59.936951 25.597759 L 59.936951 24.027701 C 59.936951 9.783932 46.285171 -1.705802 31.763425 -1.705802 C 17.493917 -1.705802 3.502387 9.783932 3.502387 24.027701 L 3.502387 43.69203 C 3.502387 58.466015 17.493917 70.038112 31.763425 70.038112 C 46.285171 70.038112 59.936951 58.466015 59.936951 43.69203 L 59.936951 42.652188 C 59.936951 42.034461 59.324371 41.437324 58.727235 41.437324 Z M 70.458911 69.085782 L 81.248554 69.085782 C 84.898294 69.085782 87.508193 66.136133 87.508193 62.820994 L 87.508193 5.681191 C 87.508193 2.03145 84.898294 -0.578449 81.248554 -0.578449 L 70.458911 -0.578449 C 67.06141 -0.578449 64.281635 2.03145 64.281635 5.681191 L 64.281635 62.820994 C 64.281635 66.136133 67.06141 69.085782 70.458911 69.085782 Z M 144.030269 -0.496085 L 133.0759 -0.496085 C 129.678398 -0.496085 126.728748 2.283689 126.728748 5.768702 L 126.728748 26.215486 L 116.556834 3.601508 C 115.599356 1.161484 113.241696 -0.496085 110.549433 -0.496085 L 99.589916 -0.496085 C 96.11005 -0.496085 93.242765 2.283689 93.242765 5.768702 L 93.242765 63.860836 C 93.242765 67.345849 96.11005 70.125623 99.589916 70.125623 L 110.549433 70.125623 C 114.111662 70.125623 116.896584 67.345849 116.896584 63.860836 L 116.896584 44.304609 L 127.08909 65.878746 C 128.128931 68.298179 130.296125 70.125623 133.0759 70.125623 L 144.030269 70.125623 C 147.597646 70.125623 150.382568 67.345849 150.382568 63.860836 L 150.382568 5.768702 C 150.382568 2.283689 147.597646 -0.496085 144.030269 -0.496085 Z M 180.388686 18.298277 L 198.035105 18.298277 C 200.56264 18.298277 202.662914 16.213447 202.662914 13.773423 L 202.662914 4.02877 C 202.662914 1.521825 200.56264 -0.496085 198.035105 -0.496085 L 162.469438 -0.496085 C 158.902061 -0.496085 156.122287 2.283689 156.122287 4.301599 L 156.122287 60.911187 C 156.122287 66.048621 158.902061 68.828395 162.469438 68.828395 L 198.035105 68.828395 C 200.56264 68.828395 202.662914 66.836224 202.662914 64.308688 L 202.662914 54.564035 C 202.662914 52.0365 200.56264 49.869306 198.035105 49.869306 L 180.388686 49.869306 C 180.048936 49.869306 179.776107 49.611919 179.776107 49.251578 L 179.776107 43.69203 C 179.776107 43.352279 180.048936 43.074302 180.388686 43.074302 L 193.1705 43.074302 C 195.445797 43.074302 197.355605 41.246858 197.355605 38.914936 L 197.355605 29.422522 C 197.355605 27.172964 195.445797 25.258008 193.1705 25.258008 L 180.388686 25.258008 C 180.048936 25.258008 179.776107 24.985179 179.776107 24.727792 L 179.776107 18.998369 C 179.776107 18.740982 180.048936 18.298277 180.388686 18.298277 Z M 180.388686 18.298277 " stroke="#12405e" stroke-width="1.413373" stroke-opacity="1" stroke-miterlimit="4"/></g><g clip-path="url(#2bb87c206f)"><path fill="#1b7895" d="M 76.84375 5.320312 C 62.816406 5.320312 51.179688 15.527344 48.945312 28.917969 L 45.476562 29.578125 C 41.398438 22.6875 33.890625 18.066406 25.304688 18.066406 C 12.359375 18.066406 1.875 28.554688 1.875 41.496094 C 1.875 52.5 9.457031 61.722656 19.683594 64.242188 L 19.683594 66.859375 L 14.941406 66.859375 L 14.917969 66.644531 L 9.300781 64.5625 L 5.363281 64.5625 L 11.578125 77.5 L 13.875 76.882812 L 15.152344 74.796875 L 19.683594 74.796875 L 19.683594 104.054688 L 27.195312 104.054688 L 26.324219 110.566406 L 8.449219 113.96875 L 4.597656 111.96875 L -9.789062 114.714844 L -8.789062 122.78125 L 5.660156 120.035156 L 9.003906 116.671875 L 28.429688 112.480469 L 29.8125 104.054688 L 101.125 104.054688 L 101.125 55.410156 L 94.867188 55.410156 C 101.144531 50.222656 105.144531 42.378906 105.144531 33.601562 C 105.144531 17.976562 92.46875 5.320312 76.84375 5.320312 Z M 52.265625 47.601562 C 53.964844 50.582031 56.1875 53.234375 58.820312 55.410156 L 44.15625 55.410156 C 45.691406 53.335938 46.882812 50.996094 47.667969 48.472656 Z M 92.953125 94.222656 C 94.363281 94.222656 95.503906 95.367188 95.503906 96.777344 C 95.503906 98.1875 94.363281 99.332031 92.953125 99.332031 C 91.542969 99.332031 90.398438 98.1875 90.398438 96.777344 C 90.398438 95.367188 91.542969 94.222656 92.953125 94.222656 Z M 92.953125 94.222656 " fill-opacity="1" fill-rule="nonzero"/></g><path fill="#ffffff" d="M 76.433594 18.644531 C 68.535156 18.644531 62.132812 25.046875 62.132812 32.945312 C 62.132812 40.84375 68.535156 47.246094 76.433594 47.246094 C 84.332031 47.246094 90.734375 40.84375 90.734375 32.945312 C 90.734375 25.046875 84.332031 18.644531 76.433594 18.644531 Z M 75.070312 22.867188 C 76.347656 22.867188 77.390625 23.894531 77.390625 25.175781 C 77.390625 26.457031 76.347656 27.496094 75.070312 27.496094 C 73.789062 27.496094 72.746094 26.457031 72.746094 25.175781 C 72.746094 23.894531 73.789062 22.867188 75.070312 22.867188 Z M 82.230469 27.210938 C 83.511719 27.210938 84.550781 28.253906 84.550781 29.53125 C 84.550781 30.8125 83.511719 31.851562 82.230469 31.851562 C 80.953125 31.851562 79.910156 30.8125 79.910156 29.53125 C 79.910156 28.253906 80.953125 27.210938 82.230469 27.210938 Z M 69.59375 29.035156 C 70.875 29.035156 71.902344 30.078125 71.902344 31.355469 C 71.902344 32.636719 70.875 33.679688 69.59375 33.679688 C 68.316406 33.679688 67.273438 32.636719 67.273438 31.355469 C 67.273438 30.078125 68.316406 29.035156 69.59375 29.035156 Z M 81.386719 35.367188 C 82.667969 35.367188 83.707031 36.394531 83.707031 37.675781 C 83.707031 38.953125 82.667969 39.996094 81.386719 39.996094 C 80.109375 39.996094 79.066406 38.953125 79.066406 37.675781 C 79.066406 36.394531 80.109375 35.367188 81.386719 35.367188 Z M 72.824219 36.769531 C 74.101562 36.769531 75.144531 37.796875 75.144531 39.078125 C 75.144531 40.355469 74.101562 41.398438 72.824219 41.398438 C 71.542969 41.398438 70.5 40.355469 70.5 39.078125 C 70.5 37.796875 71.542969 36.769531 72.824219 36.769531 Z M 72.824219 36.769531 " fill-opacity="1" fill-rule="nonzero"/><path fill="#ffffff" d="M 25.363281 28.859375 C 18.96875 28.859375 13.785156 34.042969 13.785156 40.4375 C 13.785156 46.828125 18.96875 52.011719 25.363281 52.011719 C 31.757812 52.011719 36.9375 46.828125 36.9375 40.4375 C 36.9375 34.042969 31.757812 28.859375 25.363281 28.859375 Z M 24.257812 32.277344 C 25.292969 32.277344 26.136719 33.109375 26.136719 34.144531 C 26.136719 35.183594 25.292969 36.023438 24.257812 36.023438 C 23.222656 36.023438 22.378906 35.183594 22.378906 34.144531 C 22.378906 33.109375 23.222656 32.277344 24.257812 32.277344 Z M 30.054688 35.792969 C 31.089844 35.792969 31.933594 36.636719 31.933594 37.671875 C 31.933594 38.707031 31.089844 39.550781 30.054688 39.550781 C 29.019531 39.550781 28.175781 38.707031 28.175781 37.671875 C 28.175781 36.636719 29.019531 35.792969 30.054688 35.792969 Z M 19.824219 37.269531 C 20.863281 37.269531 21.695312 38.113281 21.695312 39.148438 C 21.695312 40.1875 20.863281 41.027344 19.824219 41.027344 C 18.789062 41.027344 17.945312 40.1875 17.945312 39.148438 C 17.945312 38.113281 18.789062 37.269531 19.824219 37.269531 Z M 29.371094 42.394531 C 30.40625 42.394531 31.25 43.226562 31.25 44.265625 C 31.25 45.300781 30.40625 46.144531 29.371094 46.144531 C 28.335938 46.144531 27.492188 45.300781 27.492188 44.265625 C 27.492188 43.226562 28.335938 42.394531 29.371094 42.394531 Z M 22.4375 43.53125 C 23.472656 43.53125 24.316406 44.363281 24.316406 45.398438 C 24.316406 46.4375 23.472656 47.277344 22.4375 47.277344 C 21.402344 47.277344 20.558594 46.4375 20.558594 45.398438 C 20.558594 44.363281 21.402344 43.53125 22.4375 43.53125 Z M 22.4375 43.53125 " fill-opacity="1" fill-rule="nonzero"/><g clip-path="url(#4c3bedf12f)"><path fill="#1b7895" d="M 127.566406 52.414062 L 113.203125 61.117188 L 101.96875 61.117188 L 101.96875 82.800781 L 113.203125 82.800781 L 127.566406 91.503906 Z M 127.566406 52.414062 " fill-opacity="1" fill-rule="nonzero"/></g></svg>